<?xml version="1.0" encoding="UTF-8"?>
<svg version="1.1" viewBox="0 0 2048 2048" width="1280" height="1280" xmlns="http://www.w3.org/2000/svg">
<path transform="translate(0)" d="m0 0h2048v2048h-2048z" fill="#FEFEFE"/>
<path transform="translate(1e3 259)" d="m0 0h39l41 2 36 3 37 5 37 7 25 6 35 10 31 11 32 14 19 9 23 13 18 11 19 13 19 14 13 11 14 12 34 34 7 8 14 17 16 21 14 22 12 21 8 16 10 23 12 36 6 26 4 25 2 22v51l-3 24-6 29-7 24-10 26-10 22-14 24-11 18-10 14-13 16-8 10-11 12-7 8-14 15-38 38-8 7-15 14-20 18-8 7-10 9-11 9-28 24-14 11-14 12-11 9-11 10-11 9-11 11-8 7-25 25-7 8-12 14-13 19-7 12-8 21-5 20-4 27-2 22-1 23-1 54-7 1h-261l-1-7-1-29v-59l2-35 4-31 5-28 7-28 11-33 10-23 10-20 12-19 9-13 16-21 12-14 9-10 4-5h2l2-4 31-31 8-7 14-13 11-9 10-9 11-9 16-13 14-11 13-11 22-18 13-11 11-9 28-24 10-9 8-7 16-15 16-16 11-15 11-19 7-15 7-21 4-19 1-9v-36l-4-24-6-20-7-17-11-19-10-14-13-15-11-11-11-9-12-10-17-11-23-12-24-9-23-6-21-4-25-3-14-1h-42l-31 3-26 5-25 7-21 8-25 12-23 14-17 13-12 11-13 13-9 11-14 19-9 15-7 12-11 23-10 26-8 25-9 36-1 2h-8l-245-31-20-3 2-22 5-33 7-30 8-27 11-30 14-29 11-21 12-19 13-19 13-17 9-11 13-15 7-7 7-8 11-11 8-7 12-11 8-7 17-14 19-14 17-11 25-15 25-13 30-13 21-8 25-8 29-8 39-8 33-5 29-3 28-2z"/>
<path transform="translate(883,1505)" d="m0 0h268v289l-21 1h-247z"/>
</svg>
